<svg width="20" height="10" viewBox="0 0 20 10" fill="none" xmlns="http://www.w3.org/2000/svg">
<g clip-path="url(#clip0_1444_1898)">
<path fill-rule="evenodd" clip-rule="evenodd" d="M5.70679 0.299134C5.89426 0.486662 5.99957 0.74097 5.99957 1.00613C5.99957 1.2713 5.89426 1.52561 5.70679 1.71313L2.41379 5.00613L5.70679 8.29913C5.88894 8.48774 5.98974 8.74034 5.98746 9.00253C5.98518 9.26473 5.88001 9.51554 5.6946 9.70095C5.5092 9.88636 5.25838 9.99153 4.99619 9.99381C4.73399 9.99609 4.48139 9.89529 4.29279 9.71313L0.292787 5.71313C0.105316 5.52561 0 5.2713 0 5.00613C0 4.74097 0.105316 4.48666 0.292787 4.29913L4.29279 0.299134C4.48031 0.111663 4.73462 0.00634766 4.99979 0.00634766C5.26495 0.00634766 5.51926 0.111663 5.70679 0.299134Z" fill="#27272A"/>
</g>
<defs>
<clipPath id="clip0_1444_1898">
<rect width="20" height="9.9875" fill="white" transform="translate(0 0.00634766)"/>
</clipPath>
</defs>
</svg>
