<svg width="96" height="42" viewBox="0 0 96 42" fill="none" xmlns="http://www.w3.org/2000/svg">
<path d="M39.9948 14H38.3688V10.208H34.3008V14H32.6748V5.324H34.3008V9.056H38.3688V5.324H39.9948V14ZM44.2891 7.748C44.7491 7.748 45.1651 7.822 45.5371 7.97C45.9131 8.118 46.2331 8.328 46.4971 8.6C46.7611 8.872 46.9651 9.204 47.1091 9.596C47.2531 9.988 47.3251 10.426 47.3251 10.91C47.3251 11.398 47.2531 11.838 47.1091 12.23C46.9651 12.622 46.7611 12.956 46.4971 13.232C46.2331 13.508 45.9131 13.72 45.5371 13.868C45.1651 14.016 44.7491 14.09 44.2891 14.09C43.8291 14.09 43.4111 14.016 43.0351 13.868C42.6591 13.72 42.3371 13.508 42.0691 13.232C41.8051 12.956 41.5991 12.622 41.4511 12.23C41.3071 11.838 41.2351 11.398 41.2351 10.91C41.2351 10.426 41.3071 9.988 41.4511 9.596C41.5991 9.204 41.8051 8.872 42.0691 8.6C42.3371 8.328 42.6591 8.118 43.0351 7.97C43.4111 7.822 43.8291 7.748 44.2891 7.748ZM44.2891 12.95C44.8011 12.95 45.1791 12.778 45.4231 12.434C45.6711 12.09 45.7951 11.586 45.7951 10.922C45.7951 10.258 45.6711 9.752 45.4231 9.404C45.1791 9.056 44.8011 8.882 44.2891 8.882C43.7691 8.882 43.3851 9.058 43.1371 9.41C42.8891 9.758 42.7651 10.262 42.7651 10.922C42.7651 11.582 42.8891 12.086 43.1371 12.434C43.3851 12.778 43.7691 12.95 44.2891 12.95ZM48.4815 14V7.844H49.3875C49.5795 7.844 49.7055 7.934 49.7655 8.114L49.8615 8.57C49.9695 8.45 50.0815 8.34 50.1975 8.24C50.3175 8.14 50.4435 8.054 50.5755 7.982C50.7115 7.91 50.8555 7.854 51.0075 7.814C51.1635 7.77 51.3335 7.748 51.5175 7.748C51.9055 7.748 52.2235 7.854 52.4715 8.066C52.7235 8.274 52.9115 8.552 53.0355 8.9C53.1315 8.696 53.2515 8.522 53.3955 8.378C53.5395 8.23 53.6975 8.11 53.8695 8.018C54.0415 7.926 54.2235 7.858 54.4155 7.814C54.6115 7.77 54.8075 7.748 55.0035 7.748C55.3435 7.748 55.6455 7.8 55.9095 7.904C56.1735 8.008 56.3955 8.16 56.5755 8.36C56.7555 8.56 56.8915 8.804 56.9835 9.092C57.0795 9.38 57.1275 9.71 57.1275 10.082V14H55.6455V10.082C55.6455 9.69 55.5595 9.396 55.3875 9.2C55.2155 9 54.9635 8.9 54.6315 8.9C54.4795 8.9 54.3375 8.926 54.2055 8.978C54.0775 9.03 53.9635 9.106 53.8635 9.206C53.7675 9.302 53.6915 9.424 53.6355 9.572C53.5795 9.72 53.5515 9.89 53.5515 10.082V14H52.0635V10.082C52.0635 9.67 51.9795 9.37 51.8115 9.182C51.6475 8.994 51.4035 8.9 51.0795 8.9C50.8675 8.9 50.6675 8.954 50.4795 9.062C50.2955 9.166 50.1235 9.31 49.9635 9.494V14H48.4815ZM61.127 7.748C61.515 7.748 61.871 7.81 62.195 7.934C62.523 8.058 62.805 8.24 63.041 8.48C63.277 8.716 63.461 9.008 63.593 9.356C63.725 9.7 63.791 10.094 63.791 10.538C63.791 10.65 63.785 10.744 63.773 10.82C63.765 10.892 63.747 10.95 63.719 10.994C63.695 11.034 63.661 11.064 63.617 11.084C63.573 11.1 63.517 11.108 63.449 11.108H59.645C59.689 11.74 59.859 12.204 60.155 12.5C60.451 12.796 60.843 12.944 61.331 12.944C61.571 12.944 61.777 12.916 61.949 12.86C62.125 12.804 62.277 12.742 62.405 12.674C62.537 12.606 62.651 12.544 62.747 12.488C62.847 12.432 62.943 12.404 63.035 12.404C63.095 12.404 63.147 12.416 63.191 12.44C63.235 12.464 63.273 12.498 63.305 12.542L63.737 13.082C63.573 13.274 63.389 13.436 63.185 13.568C62.981 13.696 62.767 13.8 62.543 13.88C62.323 13.956 62.097 14.01 61.865 14.042C61.637 14.074 61.415 14.09 61.199 14.09C60.771 14.09 60.373 14.02 60.005 13.88C59.637 13.736 59.317 13.526 59.045 13.25C58.773 12.97 58.559 12.626 58.403 12.218C58.247 11.806 58.169 11.33 58.169 10.79C58.169 10.37 58.237 9.976 58.373 9.608C58.509 9.236 58.703 8.914 58.955 8.642C59.211 8.366 59.521 8.148 59.885 7.988C60.253 7.828 60.667 7.748 61.127 7.748ZM61.157 8.81C60.725 8.81 60.387 8.932 60.143 9.176C59.899 9.42 59.743 9.766 59.675 10.214H62.459C62.459 10.022 62.433 9.842 62.381 9.674C62.329 9.502 62.249 9.352 62.141 9.224C62.033 9.096 61.897 8.996 61.733 8.924C61.569 8.848 61.377 8.81 61.157 8.81Z" fill="#3F3F46"/>
<rect width="24" height="24" transform="translate(36 18)" fill="white"/>
<path d="M48.614 20.21C48.4385 20.0734 48.2224 19.9993 48 19.9993C47.7776 19.9993 47.5615 20.0734 47.386 20.21L39.158 26.61C38.7972 26.8907 38.5052 27.2501 38.3045 27.6609C38.1039 28.0716 37.9997 28.5228 38 28.98V38C38 38.5304 38.2107 39.0391 38.5858 39.4142C38.9609 39.7892 39.4696 40 40 40H44C44.5304 40 45.0391 39.7892 45.4142 39.4142C45.7893 39.0391 46 38.5304 46 38V32H50V38C50 38.5304 50.2107 39.0391 50.5858 39.4142C50.9609 39.7892 51.4696 40 52 40H56C56.5304 40 57.0391 39.7892 57.4142 39.4142C57.7893 39.0391 58 38.5304 58 38V28.98C58.0001 28.5226 57.8956 28.0713 57.6946 27.6606C57.4935 27.2498 57.2012 26.8905 56.84 26.61L48.614 20.21Z" fill="#3F3F46"/>
</svg>
