<svg width="96" height="42" viewBox="0 0 96 42" fill="none" xmlns="http://www.w3.org/2000/svg">
<path d="M48.614 2.20996C48.4385 2.07341 48.2224 1.99927 48 1.99927C47.7776 1.99927 47.5615 2.07341 47.386 2.20996L39.158 8.60996C38.7972 8.89066 38.5052 9.25011 38.3045 9.66086C38.1039 10.0716 37.9997 10.5228 38 10.98V20C38 20.5304 38.2107 21.0391 38.5858 21.4142C38.9609 21.7892 39.4696 22 40 22H44C44.5304 22 45.0391 21.7892 45.4142 21.4142C45.7893 21.0391 46 20.5304 46 20V14H50V20C50 20.5304 50.2107 21.0391 50.5858 21.4142C50.9609 21.7892 51.4696 22 52 22H56C56.5304 22 57.0391 21.7892 57.4142 21.4142C57.7893 21.0391 58 20.5304 58 20V10.98C58.0001 10.5226 57.8956 10.0713 57.6946 9.66058C57.4935 9.24982 57.2012 8.89045 56.84 8.60996L48.614 2.20996Z" fill="#FF8F00"/>
<path d="M40.073 29.324V38H38.453V34.208H34.379V38H32.759V29.324H34.379V33.056H38.453V29.324H40.073ZM44.3076 31.748C44.7636 31.748 45.1776 31.822 45.5496 31.97C45.9256 32.118 46.2456 32.328 46.5096 32.6C46.7776 32.872 46.9836 33.204 47.1276 33.596C47.2716 33.988 47.3436 34.426 47.3436 34.91C47.3436 35.398 47.2716 35.838 47.1276 36.23C46.9836 36.622 46.7776 36.956 46.5096 37.232C46.2456 37.508 45.9256 37.72 45.5496 37.868C45.1776 38.016 44.7636 38.09 44.3076 38.09C43.8476 38.09 43.4296 38.016 43.0536 37.868C42.6776 37.72 42.3556 37.508 42.0876 37.232C41.8236 36.956 41.6176 36.622 41.4696 36.23C41.3256 35.838 41.2536 35.398 41.2536 34.91C41.2536 34.426 41.3256 33.988 41.4696 33.596C41.6176 33.204 41.8236 32.872 42.0876 32.6C42.3556 32.328 42.6776 32.118 43.0536 31.97C43.4296 31.822 43.8476 31.748 44.3076 31.748ZM44.3076 36.95C44.8196 36.95 45.1976 36.778 45.4416 36.434C45.6896 36.09 45.8136 35.586 45.8136 34.922C45.8136 34.258 45.6896 33.752 45.4416 33.404C45.1976 33.056 44.8196 32.882 44.3076 32.882C43.7876 32.882 43.4016 33.058 43.1496 33.41C42.9016 33.758 42.7776 34.262 42.7776 34.922C42.7776 35.582 42.9016 36.086 43.1496 36.434C43.4016 36.778 43.7876 36.95 44.3076 36.95ZM48.4742 38V31.844H49.3802C49.5722 31.844 49.6982 31.934 49.7582 32.114L49.8542 32.57C49.9622 32.45 50.0742 32.34 50.1902 32.24C50.3102 32.14 50.4362 32.054 50.5682 31.982C50.7042 31.91 50.8482 31.854 51.0002 31.814C51.1562 31.77 51.3262 31.748 51.5102 31.748C51.8982 31.748 52.2162 31.854 52.4642 32.066C52.7162 32.274 52.9042 32.552 53.0282 32.9C53.1242 32.696 53.2442 32.522 53.3882 32.378C53.5322 32.23 53.6902 32.11 53.8622 32.018C54.0342 31.926 54.2162 31.858 54.4082 31.814C54.6042 31.77 54.8002 31.748 54.9962 31.748C55.3362 31.748 55.6382 31.8 55.9022 31.904C56.1662 32.008 56.3882 32.16 56.5682 32.36C56.7482 32.56 56.8842 32.804 56.9762 33.092C57.0722 33.38 57.1202 33.71 57.1202 34.082V38H55.6382V34.082C55.6382 33.69 55.5522 33.396 55.3802 33.2C55.2082 33 54.9562 32.9 54.6242 32.9C54.4722 32.9 54.3302 32.926 54.1982 32.978C54.0702 33.03 53.9562 33.106 53.8562 33.206C53.7602 33.302 53.6842 33.424 53.6282 33.572C53.5722 33.72 53.5442 33.89 53.5442 34.082V38H52.0562V34.082C52.0562 33.67 51.9722 33.37 51.8042 33.182C51.6402 32.994 51.3982 32.9 51.0782 32.9C50.8622 32.9 50.6602 32.954 50.4722 33.062C50.2882 33.166 50.1162 33.31 49.9562 33.494V38H48.4742ZM62.4949 34.214C62.4949 34.022 62.4669 33.842 62.4109 33.674C62.3589 33.502 62.2789 33.352 62.1709 33.224C62.0629 33.096 61.9249 32.996 61.7569 32.924C61.5929 32.848 61.4009 32.81 61.1809 32.81C60.7529 32.81 60.4149 32.932 60.1669 33.176C59.9229 33.42 59.7669 33.766 59.6989 34.214H62.4949ZM59.6689 35.108C59.6929 35.424 59.7489 35.698 59.8369 35.93C59.9249 36.158 60.0409 36.348 60.1849 36.5C60.3289 36.648 60.4989 36.76 60.6949 36.836C60.8949 36.908 61.1149 36.944 61.3549 36.944C61.5949 36.944 61.8009 36.916 61.9729 36.86C62.1489 36.804 62.3009 36.742 62.4289 36.674C62.5609 36.606 62.6749 36.544 62.7709 36.488C62.8709 36.432 62.9669 36.404 63.0589 36.404C63.1829 36.404 63.2749 36.45 63.3349 36.542L63.7609 37.082C63.5969 37.274 63.4129 37.436 63.2089 37.568C63.0049 37.696 62.7909 37.8 62.5669 37.88C62.3469 37.956 62.1209 38.01 61.8889 38.042C61.6609 38.074 61.4389 38.09 61.2229 38.09C60.7949 38.09 60.3969 38.02 60.0289 37.88C59.6609 37.736 59.3409 37.526 59.0689 37.25C58.7969 36.97 58.5829 36.626 58.4269 36.218C58.2709 35.806 58.1929 35.33 58.1929 34.79C58.1929 34.37 58.2609 33.976 58.3969 33.608C58.5329 33.236 58.7269 32.914 58.9789 32.642C59.2349 32.366 59.5449 32.148 59.9089 31.988C60.2769 31.828 60.6909 31.748 61.1509 31.748C61.5389 31.748 61.8969 31.81 62.2249 31.934C62.5529 32.058 62.8349 32.24 63.0709 32.48C63.3069 32.716 63.4909 33.008 63.6229 33.356C63.7589 33.7 63.8269 34.094 63.8269 34.538C63.8269 34.762 63.8029 34.914 63.7549 34.994C63.7069 35.07 63.6149 35.108 63.4789 35.108H59.6689Z" fill="#FF8F00"/>
</svg>
