<svg width="96" height="42" viewBox="0 0 96 42" fill="none" xmlns="http://www.w3.org/2000/svg">
<g clip-path="url(#clip0_3_986)">
<path d="M43.5 6.5C43.5 8.981 45.519 11 48 11C50.481 11 52.5 8.981 52.5 6.5C52.5 4.019 50.481 2 48 2C45.519 2 43.5 4.019 43.5 6.5ZM56 21H57V20C57 16.141 53.859 13 50 13H46C42.14 13 39 16.141 39 20V21H56Z" fill="#FF8F00"/>
<path d="M34.3016 33.686C34.5976 33.686 34.8556 33.65 35.0756 33.578C35.2956 33.502 35.4776 33.396 35.6216 33.26C35.7696 33.12 35.8796 32.952 35.9516 32.756C36.0236 32.556 36.0596 32.334 36.0596 32.09C36.0596 31.858 36.0236 31.648 35.9516 31.46C35.8796 31.272 35.7716 31.112 35.6276 30.98C35.4836 30.848 35.3016 30.748 35.0816 30.68C34.8616 30.608 34.6016 30.572 34.3016 30.572H33.0956V33.686H34.3016ZM34.3016 29.324C34.8816 29.324 35.3836 29.392 35.8076 29.528C36.2316 29.664 36.5816 29.854 36.8576 30.098C37.1336 30.342 37.3376 30.634 37.4696 30.974C37.6056 31.314 37.6736 31.686 37.6736 32.09C37.6736 32.51 37.6036 32.896 37.4636 33.248C37.3236 33.596 37.1136 33.896 36.8336 34.148C36.5536 34.4 36.2016 34.596 35.7776 34.736C35.3576 34.876 34.8656 34.946 34.3016 34.946H33.0956V38H31.4816V29.324H34.3016ZM39.9816 32.912C40.1736 32.544 40.4016 32.256 40.6656 32.048C40.9296 31.836 41.2416 31.73 41.6016 31.73C41.8856 31.73 42.1136 31.792 42.2856 31.916L42.1896 33.026C42.1696 33.098 42.1396 33.15 42.0996 33.182C42.0636 33.21 42.0136 33.224 41.9496 33.224C41.8896 33.224 41.7996 33.214 41.6796 33.194C41.5636 33.174 41.4496 33.164 41.3376 33.164C41.1736 33.164 41.0276 33.188 40.8996 33.236C40.7716 33.284 40.6556 33.354 40.5516 33.446C40.4516 33.534 40.3616 33.642 40.2816 33.77C40.2056 33.898 40.1336 34.044 40.0656 34.208V38H38.5836V31.844H39.4536C39.6056 31.844 39.7116 31.872 39.7716 31.928C39.8316 31.98 39.8716 32.076 39.8916 32.216L39.9816 32.912ZM45.6083 31.748C46.0643 31.748 46.4783 31.822 46.8503 31.97C47.2263 32.118 47.5463 32.328 47.8103 32.6C48.0783 32.872 48.2843 33.204 48.4283 33.596C48.5723 33.988 48.6443 34.426 48.6443 34.91C48.6443 35.398 48.5723 35.838 48.4283 36.23C48.2843 36.622 48.0783 36.956 47.8103 37.232C47.5463 37.508 47.2263 37.72 46.8503 37.868C46.4783 38.016 46.0643 38.09 45.6083 38.09C45.1483 38.09 44.7303 38.016 44.3543 37.868C43.9783 37.72 43.6563 37.508 43.3883 37.232C43.1243 36.956 42.9183 36.622 42.7703 36.23C42.6263 35.838 42.5543 35.398 42.5543 34.91C42.5543 34.426 42.6263 33.988 42.7703 33.596C42.9183 33.204 43.1243 32.872 43.3883 32.6C43.6563 32.328 43.9783 32.118 44.3543 31.97C44.7303 31.822 45.1483 31.748 45.6083 31.748ZM45.6083 36.95C46.1203 36.95 46.4983 36.778 46.7423 36.434C46.9903 36.09 47.1143 35.586 47.1143 34.922C47.1143 34.258 46.9903 33.752 46.7423 33.404C46.4983 33.056 46.1203 32.882 45.6083 32.882C45.0883 32.882 44.7023 33.058 44.4503 33.41C44.2023 33.758 44.0783 34.262 44.0783 34.922C44.0783 35.582 44.2023 36.086 44.4503 36.434C44.7023 36.778 45.0883 36.95 45.6083 36.95ZM50.0606 38V32.96L49.5266 32.876C49.4106 32.852 49.3166 32.812 49.2446 32.756C49.1766 32.696 49.1426 32.612 49.1426 32.504V31.898H50.0606V31.7C50.0606 31.324 50.1226 30.976 50.2466 30.656C50.3706 30.332 50.5586 30.052 50.8106 29.816C51.0626 29.58 51.3806 29.396 51.7646 29.264C52.1526 29.128 52.6086 29.06 53.1326 29.06C53.3006 29.06 53.4706 29.07 53.6426 29.09C53.8186 29.106 53.9706 29.134 54.0986 29.174L54.0506 29.942C54.0426 30.034 53.9926 30.09 53.9006 30.11C53.8086 30.126 53.6946 30.134 53.5586 30.134C53.1706 30.134 52.8446 30.168 52.5806 30.236C52.3206 30.304 52.1086 30.406 51.9446 30.542C51.7846 30.674 51.6686 30.842 51.5966 31.046C51.5286 31.246 51.4946 31.48 51.4946 31.748V31.898H55.3106V38H53.8286V32.954H51.5426V38H50.0606ZM58.3297 29.084V38H56.8477V29.084H58.3297ZM63.7722 34.214C63.7722 34.022 63.7442 33.842 63.6882 33.674C63.6362 33.502 63.5562 33.352 63.4482 33.224C63.3402 33.096 63.2022 32.996 63.0342 32.924C62.8702 32.848 62.6782 32.81 62.4582 32.81C62.0302 32.81 61.6922 32.932 61.4442 33.176C61.2002 33.42 61.0442 33.766 60.9762 34.214H63.7722ZM60.9462 35.108C60.9702 35.424 61.0262 35.698 61.1142 35.93C61.2022 36.158 61.3182 36.348 61.4622 36.5C61.6062 36.648 61.7762 36.76 61.9722 36.836C62.1722 36.908 62.3922 36.944 62.6322 36.944C62.8722 36.944 63.0782 36.916 63.2502 36.86C63.4262 36.804 63.5782 36.742 63.7062 36.674C63.8382 36.606 63.9522 36.544 64.0482 36.488C64.1482 36.432 64.2442 36.404 64.3362 36.404C64.4602 36.404 64.5522 36.45 64.6122 36.542L65.0382 37.082C64.8742 37.274 64.6902 37.436 64.4862 37.568C64.2822 37.696 64.0682 37.8 63.8442 37.88C63.6242 37.956 63.3982 38.01 63.1662 38.042C62.9382 38.074 62.7162 38.09 62.5002 38.09C62.0722 38.09 61.6742 38.02 61.3062 37.88C60.9382 37.736 60.6182 37.526 60.3462 37.25C60.0742 36.97 59.8602 36.626 59.7042 36.218C59.5482 35.806 59.4702 35.33 59.4702 34.79C59.4702 34.37 59.5382 33.976 59.6742 33.608C59.8102 33.236 60.0042 32.914 60.2562 32.642C60.5122 32.366 60.8222 32.148 61.1862 31.988C61.5542 31.828 61.9682 31.748 62.4282 31.748C62.8162 31.748 63.1742 31.81 63.5022 31.934C63.8302 32.058 64.1122 32.24 64.3482 32.48C64.5842 32.716 64.7682 33.008 64.9002 33.356C65.0362 33.7 65.1042 34.094 65.1042 34.538C65.1042 34.762 65.0802 34.914 65.0322 34.994C64.9842 35.07 64.8922 35.108 64.7562 35.108H60.9462Z" fill="#FF8F00"/>
<rect width="24" height="24" transform="translate(36 36)" fill="white"/>
<path d="M43.5 42.5C43.5 44.981 45.519 47 48 47C50.481 47 52.5 44.981 52.5 42.5C52.5 40.019 50.481 38 48 38C45.519 38 43.5 40.019 43.5 42.5ZM56 57H57V56C57 52.141 53.859 49 50 49H46C42.14 49 39 52.141 39 56V57H56Z" fill="#FF8F00"/>
</g>
<defs>
<clipPath id="clip0_3_986">
<rect x="0.625" width="94.75" height="42" rx="21" fill="white"/>
</clipPath>
</defs>
</svg>
