<svg width="64" height="42" viewBox="0 0 64 42" fill="none" xmlns="http://www.w3.org/2000/svg">
<g clip-path="url(#clip0_3_991)">
<path d="M27.5 6.5C27.5 8.981 29.519 11 32 11C34.481 11 36.5 8.981 36.5 6.5C36.5 4.019 34.481 2 32 2C29.519 2 27.5 4.019 27.5 6.5ZM40 21H41V20C41 16.141 37.859 13 34 13H30C26.14 13 23 16.141 23 20V21H40Z" fill="#3F3F46"/>
<path d="M16.4971 34.946V38H14.8831V29.324H17.7091C18.2891 29.324 18.7911 29.392 19.2151 29.528C19.6391 29.664 19.9891 29.854 20.2651 30.098C20.5411 30.342 20.7451 30.634 20.8771 30.974C21.0091 31.314 21.0751 31.686 21.0751 32.09C21.0751 32.51 21.0051 32.896 20.8651 33.248C20.7251 33.596 20.5151 33.896 20.2351 34.148C19.9551 34.4 19.6051 34.596 19.1851 34.736C18.7651 34.876 18.2731 34.946 17.7091 34.946H16.4971ZM16.4971 33.686H17.7091C18.0051 33.686 18.2631 33.65 18.4831 33.578C18.7031 33.502 18.8851 33.396 19.0291 33.26C19.1731 33.12 19.2811 32.952 19.3531 32.756C19.4251 32.556 19.4611 32.334 19.4611 32.09C19.4611 31.858 19.4251 31.648 19.3531 31.46C19.2811 31.272 19.1731 31.112 19.0291 30.98C18.8851 30.848 18.7031 30.748 18.4831 30.68C18.2631 30.608 18.0051 30.572 17.7091 30.572H16.4971V33.686ZM22.2451 38V31.844H23.1151C23.2671 31.844 23.3731 31.872 23.4331 31.928C23.4931 31.984 23.5331 32.08 23.5531 32.216L23.6431 32.96C23.8631 32.58 24.1211 32.28 24.4171 32.06C24.7131 31.84 25.0451 31.73 25.4131 31.73C25.7171 31.73 25.9691 31.8 26.1691 31.94L25.9771 33.05C25.9651 33.122 25.9391 33.174 25.8991 33.206C25.8591 33.234 25.8051 33.248 25.7371 33.248C25.6771 33.248 25.5951 33.234 25.4911 33.206C25.3871 33.178 25.2491 33.164 25.0771 33.164C24.7691 33.164 24.5051 33.25 24.2851 33.422C24.0651 33.59 23.8791 33.838 23.7271 34.166V38H22.2451ZM29.7716 31.748C30.2316 31.748 30.6476 31.822 31.0196 31.97C31.3956 32.118 31.7156 32.328 31.9796 32.6C32.2436 32.872 32.4476 33.204 32.5916 33.596C32.7356 33.988 32.8076 34.426 32.8076 34.91C32.8076 35.398 32.7356 35.838 32.5916 36.23C32.4476 36.622 32.2436 36.956 31.9796 37.232C31.7156 37.508 31.3956 37.72 31.0196 37.868C30.6476 38.016 30.2316 38.09 29.7716 38.09C29.3116 38.09 28.8936 38.016 28.5176 37.868C28.1416 37.72 27.8196 37.508 27.5516 37.232C27.2876 36.956 27.0816 36.622 26.9336 36.23C26.7896 35.838 26.7176 35.398 26.7176 34.91C26.7176 34.426 26.7896 33.988 26.9336 33.596C27.0816 33.204 27.2876 32.872 27.5516 32.6C27.8196 32.328 28.1416 32.118 28.5176 31.97C28.8936 31.822 29.3116 31.748 29.7716 31.748ZM29.7716 36.95C30.2836 36.95 30.6616 36.778 30.9056 36.434C31.1536 36.09 31.2776 35.586 31.2776 34.922C31.2776 34.258 31.1536 33.752 30.9056 33.404C30.6616 33.056 30.2836 32.882 29.7716 32.882C29.2516 32.882 28.8676 33.058 28.6196 33.41C28.3716 33.758 28.2476 34.262 28.2476 34.922C28.2476 35.582 28.3716 36.086 28.6196 36.434C28.8676 36.778 29.2516 36.95 29.7716 36.95ZM34.2279 38V32.96L33.6939 32.876C33.5779 32.856 33.4839 32.816 33.4119 32.756C33.3439 32.696 33.3099 32.612 33.3099 32.504V31.898H34.2279V31.7C34.2279 31.324 34.2899 30.976 34.4139 30.656C34.5379 30.332 34.7259 30.052 34.9779 29.816C35.2299 29.58 35.5479 29.396 35.9319 29.264C36.3159 29.128 36.7699 29.06 37.2939 29.06C37.4619 29.06 37.6339 29.07 37.8099 29.09C37.9859 29.106 38.1379 29.134 38.2659 29.174L38.2179 29.942C38.2099 30.034 38.1599 30.09 38.0679 30.11C37.9759 30.126 37.8619 30.134 37.7259 30.134C37.3379 30.134 37.0119 30.168 36.7479 30.236C36.4879 30.304 36.2759 30.406 36.1119 30.542C35.9519 30.674 35.8359 30.842 35.7639 31.046C35.6959 31.246 35.6619 31.48 35.6619 31.748V31.898H39.4779V38H37.9959V32.954H35.7099V38H34.2279ZM42.7489 29.084V38H41.2669V29.084H42.7489ZM46.9727 31.748C47.3607 31.748 47.7167 31.81 48.0407 31.934C48.3687 32.058 48.6507 32.24 48.8867 32.48C49.1227 32.716 49.3067 33.008 49.4387 33.356C49.5707 33.7 49.6367 34.094 49.6367 34.538C49.6367 34.65 49.6307 34.744 49.6187 34.82C49.6107 34.892 49.5927 34.95 49.5647 34.994C49.5407 35.034 49.5067 35.064 49.4627 35.084C49.4187 35.1 49.3627 35.108 49.2947 35.108H45.4907C45.5347 35.74 45.7047 36.204 46.0007 36.5C46.2967 36.796 46.6887 36.944 47.1767 36.944C47.4167 36.944 47.6227 36.916 47.7947 36.86C47.9707 36.804 48.1227 36.742 48.2507 36.674C48.3827 36.606 48.4967 36.544 48.5927 36.488C48.6927 36.432 48.7887 36.404 48.8807 36.404C48.9407 36.404 48.9927 36.416 49.0367 36.44C49.0807 36.464 49.1187 36.498 49.1507 36.542L49.5827 37.082C49.4187 37.274 49.2347 37.436 49.0307 37.568C48.8267 37.696 48.6127 37.8 48.3887 37.88C48.1687 37.956 47.9427 38.01 47.7107 38.042C47.4827 38.074 47.2607 38.09 47.0447 38.09C46.6167 38.09 46.2187 38.02 45.8507 37.88C45.4827 37.736 45.1627 37.526 44.8907 37.25C44.6187 36.97 44.4047 36.626 44.2487 36.218C44.0927 35.806 44.0147 35.33 44.0147 34.79C44.0147 34.37 44.0827 33.976 44.2187 33.608C44.3547 33.236 44.5487 32.914 44.8007 32.642C45.0567 32.366 45.3667 32.148 45.7307 31.988C46.0987 31.828 46.5127 31.748 46.9727 31.748ZM47.0027 32.81C46.5707 32.81 46.2327 32.932 45.9887 33.176C45.7447 33.42 45.5887 33.766 45.5207 34.214H48.3047C48.3047 34.022 48.2787 33.842 48.2267 33.674C48.1747 33.502 48.0947 33.352 47.9867 33.224C47.8787 33.096 47.7427 32.996 47.5787 32.924C47.4147 32.848 47.2227 32.81 47.0027 32.81Z" fill="#3F3F46"/>
</g>
<defs>
<clipPath id="clip0_3_991">
<rect x="0.416664" width="63.1667" height="42" rx="21" fill="white"/>
</clipPath>
</defs>
</svg>
